<svg id="Layer_1" data-name="Layer 1" xmlns="http://www.w3.org/2000/svg" viewBox="0 0 1907.78 548.89"><defs><style>.cls-1,.cls-2{stroke:#000;stroke-miterlimit:10;stroke-width:40px;}.cls-2,.cls-3{fill:#fff;}</style></defs><path class="cls-1" d="M673.61,245.55V754.44H126a59.86,59.86,0,0,1-59.86-59.86V305.41A59.86,59.86,0,0,1,126,245.55Z" transform="translate(-46.11 -225.55)"/><path class="cls-2" d="M1933.89,305.42V694.59A59.86,59.86,0,0,1,1874,754.45H673.61V245.56H1874A59.86,59.86,0,0,1,1933.89,305.42Z" transform="translate(-46.11 -225.55)"/><path class="cls-3" d="M140.63,550l67.63-12.17q8.51,28.68,43.8,28.68,27.46,0,27.47-14.6A13.56,13.56,0,0,0,273.18,540q-6.35-4.26-22.68-7.55-62.43-12-80.15-31.26a65,65,0,0,1-17.72-45.39q0-33.55,25.47-55.82t73.27-22.25q72.48,0,95.78,58.23l-60.32,18.25q-9.39-23.81-38.07-23.81-23.82,0-23.82,14.77a11.69,11.69,0,0,0,5.39,10.26q5.38,3.64,20.87,6.94,42.58,9,60.5,15.94T341.6,502q12,16.8,12,39.58,0,36-29.2,58.36t-76.66,22.35Q161,622.29,140.63,550Z" transform="translate(-46.11 -225.55)"/><path class="cls-3" d="M454.24,381.36V618.64H381.4V381.36Z" transform="translate(-46.11 -225.55)"/><path class="cls-3" d="M593.13,438.2V618.64h-69V438.2h-49.2V381.36H642.33V438.2Z" transform="translate(-46.11 -225.55)"/><path d="M882.57,528.07l66.58,4q-4.7,43.63-32.24,66.93T849.2,622.29q-48.33,0-78.06-32T741.42,502q0-55.8,28.16-90.05t78.57-34.24q47.11,0,72.41,26.07T949.15,473l-68,3.65q0-23.82-9.12-34.42t-21.47-10.61q-34.43,0-34.42,69.19,0,38.78,9,52.68t25.12,13.9Q879.1,567.36,882.57,528.07Z" transform="translate(-46.11 -225.55)"/><path d="M1078.31,622.29q-50.05,0-81.61-33.2t-31.55-88.83q0-53.19,30.16-87.87t83.7-34.68q49.54,0,80.75,32.68t31.2,87.26q0,56.51-31.46,90.57T1078.31,622.29Zm-.34-53.88q18.42,0,26.51-16.08t8.08-58.85q0-61.89-33.2-61.89-35.82,0-35.81,70.58Q1043.55,568.41,1078,568.41Z" transform="translate(-46.11 -225.55)"/><path d="M1221.73,618.64V381.36h91.79q59.79,0,89.52,35.46t29.73,82.05q0,53.19-31.9,86.48T1318,618.64Zm72.84-54.58h19q18.07,0,30.5-17.56t12.43-47.8q0-25.9-11-44.68t-31.9-18.77h-19Z" transform="translate(-46.11 -225.55)"/><path d="M1642.07,562v56.67H1463.54V381.36h178.53v54.75H1535v34.42h86.57v52.68H1535V562Z" transform="translate(-46.11 -225.55)"/><path d="M1646.42,550,1714,537.81q8.52,28.68,43.81,28.68,27.47,0,27.46-14.6A13.55,13.55,0,0,0,1779,540q-6.36-4.26-22.69-7.55-62.41-12-80.14-31.26a64.92,64.92,0,0,1-17.73-45.39q0-33.55,25.47-55.82t73.27-22.25q72.49,0,95.78,58.23l-60.32,18.25q-9.39-23.81-38.07-23.81-23.82,0-23.81,14.77a11.67,11.67,0,0,0,5.39,10.26q5.39,3.64,20.86,6.94,42.6,9,60.51,15.94T1847.38,502q12,16.8,12,39.58,0,36-29.21,58.36t-76.66,22.35Q1666.76,622.29,1646.42,550Z" transform="translate(-46.11 -225.55)"/></svg>